<mxfile host="app.diagrams.net" modified="2021-09-24T14:07:14.260Z" agent="5.0 (Windows NT 10.0; Win64; x64) AppleWebKit/537.36 (KHTML, like Gecko) Chrome/93.0.4577.82 Safari/537.36 Edg/93.0.961.52" etag="A1IOI2KXruB5E9hI5c9Q" version="15.3.0" type="github">
  <diagram id="yrBPIvrBBxG2GHr-hLJs" name="Page-1">
    <mxGraphModel dx="1422" dy="762" grid="1" gridSize="10" guides="1" tooltips="1" connect="1" arrows="1" fold="1" page="1" pageScale="1" pageWidth="850" pageHeight="1100" math="0" shadow="0">
      <root>
        <mxCell id="0" />
        <mxCell id="1" parent="0" />
        <mxCell id="Ef-hdODruIOetG3MJPPk-14" style="edgeStyle=orthogonalEdgeStyle;rounded=0;orthogonalLoop=1;jettySize=auto;html=1;exitX=1;exitY=0.5;exitDx=0;exitDy=0;entryX=0;entryY=0.57;entryDx=0;entryDy=0;entryPerimeter=0;endArrow=none;endFill=0;" edge="1" parent="1" source="Ef-hdODruIOetG3MJPPk-1" target="Ef-hdODruIOetG3MJPPk-4">
          <mxGeometry relative="1" as="geometry" />
        </mxCell>
        <mxCell id="Ef-hdODruIOetG3MJPPk-15" style="edgeStyle=orthogonalEdgeStyle;rounded=0;orthogonalLoop=1;jettySize=auto;html=1;exitX=1;exitY=0.5;exitDx=0;exitDy=0;entryX=0;entryY=0.57;entryDx=0;entryDy=0;entryPerimeter=0;endArrow=none;endFill=0;" edge="1" parent="1" source="Ef-hdODruIOetG3MJPPk-1" target="Ef-hdODruIOetG3MJPPk-5">
          <mxGeometry relative="1" as="geometry" />
        </mxCell>
        <mxCell id="Ef-hdODruIOetG3MJPPk-16" style="edgeStyle=orthogonalEdgeStyle;rounded=0;orthogonalLoop=1;jettySize=auto;html=1;exitX=1;exitY=0.5;exitDx=0;exitDy=0;entryX=0;entryY=0.57;entryDx=0;entryDy=0;entryPerimeter=0;endArrow=none;endFill=0;" edge="1" parent="1" source="Ef-hdODruIOetG3MJPPk-1" target="Ef-hdODruIOetG3MJPPk-6">
          <mxGeometry relative="1" as="geometry" />
        </mxCell>
        <mxCell id="Ef-hdODruIOetG3MJPPk-17" style="edgeStyle=orthogonalEdgeStyle;rounded=0;orthogonalLoop=1;jettySize=auto;html=1;exitX=1;exitY=0.5;exitDx=0;exitDy=0;entryX=0;entryY=0.57;entryDx=0;entryDy=0;entryPerimeter=0;endArrow=none;endFill=0;" edge="1" parent="1" source="Ef-hdODruIOetG3MJPPk-1" target="Ef-hdODruIOetG3MJPPk-3">
          <mxGeometry relative="1" as="geometry" />
        </mxCell>
        <mxCell id="Ef-hdODruIOetG3MJPPk-18" style="edgeStyle=orthogonalEdgeStyle;rounded=0;orthogonalLoop=1;jettySize=auto;html=1;exitX=1;exitY=0.5;exitDx=0;exitDy=0;entryX=0;entryY=0.57;entryDx=0;entryDy=0;entryPerimeter=0;endArrow=none;endFill=0;" edge="1" parent="1" source="Ef-hdODruIOetG3MJPPk-1" target="Ef-hdODruIOetG3MJPPk-2">
          <mxGeometry relative="1" as="geometry" />
        </mxCell>
        <mxCell id="Ef-hdODruIOetG3MJPPk-20" style="edgeStyle=orthogonalEdgeStyle;rounded=0;orthogonalLoop=1;jettySize=auto;html=1;exitX=1;exitY=0.5;exitDx=0;exitDy=0;entryX=0;entryY=0.57;entryDx=0;entryDy=0;entryPerimeter=0;endArrow=none;endFill=0;" edge="1" parent="1" source="Ef-hdODruIOetG3MJPPk-1" target="Ef-hdODruIOetG3MJPPk-7">
          <mxGeometry relative="1" as="geometry" />
        </mxCell>
        <mxCell id="Ef-hdODruIOetG3MJPPk-21" style="edgeStyle=orthogonalEdgeStyle;rounded=0;orthogonalLoop=1;jettySize=auto;html=1;exitX=1;exitY=0.5;exitDx=0;exitDy=0;entryX=0;entryY=0.57;entryDx=0;entryDy=0;entryPerimeter=0;endArrow=none;endFill=0;" edge="1" parent="1" source="Ef-hdODruIOetG3MJPPk-1" target="Ef-hdODruIOetG3MJPPk-8">
          <mxGeometry relative="1" as="geometry" />
        </mxCell>
        <mxCell id="Ef-hdODruIOetG3MJPPk-22" style="edgeStyle=orthogonalEdgeStyle;rounded=0;orthogonalLoop=1;jettySize=auto;html=1;exitX=1;exitY=0.5;exitDx=0;exitDy=0;entryX=0;entryY=0.57;entryDx=0;entryDy=0;entryPerimeter=0;endArrow=none;endFill=0;" edge="1" parent="1" source="Ef-hdODruIOetG3MJPPk-1" target="Ef-hdODruIOetG3MJPPk-9">
          <mxGeometry relative="1" as="geometry" />
        </mxCell>
        <mxCell id="Ef-hdODruIOetG3MJPPk-23" style="edgeStyle=orthogonalEdgeStyle;rounded=0;orthogonalLoop=1;jettySize=auto;html=1;exitX=1;exitY=0.5;exitDx=0;exitDy=0;entryX=0;entryY=0.57;entryDx=0;entryDy=0;entryPerimeter=0;endArrow=none;endFill=0;" edge="1" parent="1" source="Ef-hdODruIOetG3MJPPk-1" target="Ef-hdODruIOetG3MJPPk-10">
          <mxGeometry relative="1" as="geometry" />
        </mxCell>
        <mxCell id="Ef-hdODruIOetG3MJPPk-24" style="edgeStyle=orthogonalEdgeStyle;rounded=0;orthogonalLoop=1;jettySize=auto;html=1;exitX=1;exitY=0.5;exitDx=0;exitDy=0;entryX=0;entryY=0.57;entryDx=0;entryDy=0;entryPerimeter=0;endArrow=none;endFill=0;" edge="1" parent="1" source="Ef-hdODruIOetG3MJPPk-1" target="Ef-hdODruIOetG3MJPPk-11">
          <mxGeometry relative="1" as="geometry" />
        </mxCell>
        <mxCell id="Ef-hdODruIOetG3MJPPk-1" value="LED CONTROLLER&lt;br&gt;SIngle Channel :&amp;nbsp;&lt;br&gt;&lt;span style=&quot;font-size: 11.0pt ; font-family: &amp;#34;calibri&amp;#34; , sans-serif&quot;&gt;&lt;a href=&quot;https://www.diodes.com/assets/Datasheets/ZXLD1350Q.pdf&quot;&gt;ZXLD1350Q&lt;/a&gt;&lt;br&gt;Mutli Channel:&lt;br&gt;&lt;/span&gt;&lt;span style=&quot;font-size: 11.0pt ; font-family: &amp;#34;calibri&amp;#34; , sans-serif&quot;&gt;PCA9685&lt;br&gt;&lt;/span&gt;&lt;span style=&quot;font-size: 11.0pt ; font-family: &amp;#34;calibri&amp;#34; , sans-serif&quot;&gt;NCV7685&amp;nbsp;&lt;/span&gt;&lt;span style=&quot;font-size: 11.0pt ; font-family: &amp;#34;calibri&amp;#34; , sans-serif&quot;&gt;&lt;br&gt;&lt;/span&gt;" style="rounded=0;whiteSpace=wrap;html=1;" vertex="1" parent="1">
          <mxGeometry x="445" y="220" width="130" height="120" as="geometry" />
        </mxCell>
        <mxCell id="Ef-hdODruIOetG3MJPPk-2" value="" style="verticalLabelPosition=bottom;shadow=0;dashed=0;align=center;html=1;verticalAlign=top;shape=mxgraph.electrical.opto_electronics.led_2;pointerEvents=1;" vertex="1" parent="1">
          <mxGeometry x="730" y="130" width="50" height="30" as="geometry" />
        </mxCell>
        <mxCell id="Ef-hdODruIOetG3MJPPk-3" value="" style="verticalLabelPosition=bottom;shadow=0;dashed=0;align=center;html=1;verticalAlign=top;shape=mxgraph.electrical.opto_electronics.led_2;pointerEvents=1;" vertex="1" parent="1">
          <mxGeometry x="730" y="160" width="50" height="30" as="geometry" />
        </mxCell>
        <mxCell id="Ef-hdODruIOetG3MJPPk-4" value="" style="verticalLabelPosition=bottom;shadow=0;dashed=0;align=center;html=1;verticalAlign=top;shape=mxgraph.electrical.opto_electronics.led_2;pointerEvents=1;" vertex="1" parent="1">
          <mxGeometry x="730" y="190" width="50" height="30" as="geometry" />
        </mxCell>
        <mxCell id="Ef-hdODruIOetG3MJPPk-5" value="" style="verticalLabelPosition=bottom;shadow=0;dashed=0;align=center;html=1;verticalAlign=top;shape=mxgraph.electrical.opto_electronics.led_2;pointerEvents=1;" vertex="1" parent="1">
          <mxGeometry x="730" y="220" width="50" height="30" as="geometry" />
        </mxCell>
        <mxCell id="Ef-hdODruIOetG3MJPPk-6" value="" style="verticalLabelPosition=bottom;shadow=0;dashed=0;align=center;html=1;verticalAlign=top;shape=mxgraph.electrical.opto_electronics.led_2;pointerEvents=1;" vertex="1" parent="1">
          <mxGeometry x="730" y="250" width="50" height="30" as="geometry" />
        </mxCell>
        <mxCell id="Ef-hdODruIOetG3MJPPk-7" value="" style="verticalLabelPosition=bottom;shadow=0;dashed=0;align=center;html=1;verticalAlign=top;shape=mxgraph.electrical.opto_electronics.led_2;pointerEvents=1;" vertex="1" parent="1">
          <mxGeometry x="730" y="280" width="50" height="30" as="geometry" />
        </mxCell>
        <mxCell id="Ef-hdODruIOetG3MJPPk-8" value="" style="verticalLabelPosition=bottom;shadow=0;dashed=0;align=center;html=1;verticalAlign=top;shape=mxgraph.electrical.opto_electronics.led_2;pointerEvents=1;" vertex="1" parent="1">
          <mxGeometry x="730" y="310" width="50" height="30" as="geometry" />
        </mxCell>
        <mxCell id="Ef-hdODruIOetG3MJPPk-9" value="" style="verticalLabelPosition=bottom;shadow=0;dashed=0;align=center;html=1;verticalAlign=top;shape=mxgraph.electrical.opto_electronics.led_2;pointerEvents=1;" vertex="1" parent="1">
          <mxGeometry x="730" y="340" width="50" height="30" as="geometry" />
        </mxCell>
        <mxCell id="Ef-hdODruIOetG3MJPPk-10" value="" style="verticalLabelPosition=bottom;shadow=0;dashed=0;align=center;html=1;verticalAlign=top;shape=mxgraph.electrical.opto_electronics.led_2;pointerEvents=1;" vertex="1" parent="1">
          <mxGeometry x="730" y="370" width="50" height="30" as="geometry" />
        </mxCell>
        <mxCell id="Ef-hdODruIOetG3MJPPk-11" value="" style="verticalLabelPosition=bottom;shadow=0;dashed=0;align=center;html=1;verticalAlign=top;shape=mxgraph.electrical.opto_electronics.led_2;pointerEvents=1;" vertex="1" parent="1">
          <mxGeometry x="730" y="400" width="50" height="30" as="geometry" />
        </mxCell>
        <mxCell id="Ef-hdODruIOetG3MJPPk-26" style="edgeStyle=orthogonalEdgeStyle;rounded=0;orthogonalLoop=1;jettySize=auto;html=1;exitX=1;exitY=0.5;exitDx=0;exitDy=0;exitPerimeter=0;entryX=0.5;entryY=0;entryDx=0;entryDy=0;endArrow=none;endFill=0;" edge="1" parent="1" target="Ef-hdODruIOetG3MJPPk-1">
          <mxGeometry relative="1" as="geometry">
            <mxPoint x="240" y="60" as="sourcePoint" />
          </mxGeometry>
        </mxCell>
        <mxCell id="Ef-hdODruIOetG3MJPPk-31" style="edgeStyle=orthogonalEdgeStyle;rounded=0;orthogonalLoop=1;jettySize=auto;html=1;exitX=1;exitY=0.5;exitDx=0;exitDy=0;exitPerimeter=0;entryX=0.5;entryY=0;entryDx=0;entryDy=0;endArrow=none;endFill=0;" edge="1" parent="1" source="Ef-hdODruIOetG3MJPPk-25" target="Ef-hdODruIOetG3MJPPk-30">
          <mxGeometry relative="1" as="geometry">
            <mxPoint x="240" y="60" as="sourcePoint" />
          </mxGeometry>
        </mxCell>
        <mxCell id="Ef-hdODruIOetG3MJPPk-25" value="9 - 12 V&lt;br&gt;" style="pointerEvents=1;verticalLabelPosition=bottom;shadow=0;dashed=0;align=center;html=1;verticalAlign=top;shape=mxgraph.electrical.signal_sources.source;aspect=fixed;points=[[0.5,0,0],[1,0.5,0],[0.5,1,0],[0,0.5,0]];elSignalType=dc1;" vertex="1" parent="1">
          <mxGeometry x="50" y="30" width="60" height="60" as="geometry" />
        </mxCell>
        <mxCell id="Ef-hdODruIOetG3MJPPk-28" style="edgeStyle=orthogonalEdgeStyle;rounded=0;orthogonalLoop=1;jettySize=auto;html=1;exitX=1;exitY=0;exitDx=0;exitDy=70;exitPerimeter=0;entryX=0;entryY=0.5;entryDx=0;entryDy=0;endArrow=none;endFill=0;" edge="1" parent="1" source="Ef-hdODruIOetG3MJPPk-27" target="Ef-hdODruIOetG3MJPPk-1">
          <mxGeometry relative="1" as="geometry" />
        </mxCell>
        <mxCell id="Ef-hdODruIOetG3MJPPk-36" style="edgeStyle=orthogonalEdgeStyle;rounded=0;orthogonalLoop=1;jettySize=auto;html=1;exitX=0;exitY=0;exitDx=0;exitDy=70;exitPerimeter=0;entryX=1;entryY=0.5;entryDx=0;entryDy=0;endArrow=none;endFill=0;" edge="1" parent="1" source="Ef-hdODruIOetG3MJPPk-27" target="Ef-hdODruIOetG3MJPPk-34">
          <mxGeometry relative="1" as="geometry" />
        </mxCell>
        <mxCell id="Ef-hdODruIOetG3MJPPk-27" value="MCU&lt;br&gt;INFINEON&lt;br&gt;NXP&amp;nbsp;&lt;br&gt;MICROCHIP" style="shadow=0;dashed=0;align=center;html=1;strokeWidth=1;shape=mxgraph.electrical.logic_gates.qfp_ic;labelNames=a,b,c,d,e,f,g,h,i,j,k,l,m,n,o,p,q,r,s,t,u,v,w,x,y,z,a1,b1,c1,d1,e1,f1,g1,h1,i1,j1,k1,l1,m1,n1;" vertex="1" parent="1">
          <mxGeometry x="220" y="210" width="150" height="155" as="geometry" />
        </mxCell>
        <mxCell id="Ef-hdODruIOetG3MJPPk-32" style="edgeStyle=orthogonalEdgeStyle;rounded=0;orthogonalLoop=1;jettySize=auto;html=1;exitX=0.5;exitY=1;exitDx=0;exitDy=0;entryX=0;entryY=0;entryDx=70;entryDy=0;entryPerimeter=0;endArrow=none;endFill=0;" edge="1" parent="1" source="Ef-hdODruIOetG3MJPPk-30" target="Ef-hdODruIOetG3MJPPk-27">
          <mxGeometry relative="1" as="geometry">
            <Array as="points">
              <mxPoint x="285" y="210" />
            </Array>
          </mxGeometry>
        </mxCell>
        <mxCell id="Ef-hdODruIOetG3MJPPk-35" style="edgeStyle=orthogonalEdgeStyle;rounded=0;orthogonalLoop=1;jettySize=auto;html=1;exitX=0;exitY=0.5;exitDx=0;exitDy=0;entryX=0.5;entryY=0;entryDx=0;entryDy=0;endArrow=none;endFill=0;" edge="1" parent="1" source="Ef-hdODruIOetG3MJPPk-30" target="Ef-hdODruIOetG3MJPPk-34">
          <mxGeometry relative="1" as="geometry" />
        </mxCell>
        <mxCell id="Ef-hdODruIOetG3MJPPk-30" value="LDO" style="rounded=0;whiteSpace=wrap;html=1;" vertex="1" parent="1">
          <mxGeometry x="250" y="120" width="70" height="50" as="geometry" />
        </mxCell>
        <mxCell id="Ef-hdODruIOetG3MJPPk-37" style="edgeStyle=orthogonalEdgeStyle;rounded=0;orthogonalLoop=1;jettySize=auto;html=1;exitX=0.5;exitY=1;exitDx=0;exitDy=0;endArrow=none;endFill=0;" edge="1" parent="1" source="Ef-hdODruIOetG3MJPPk-34">
          <mxGeometry relative="1" as="geometry">
            <mxPoint x="155" y="420" as="targetPoint" />
          </mxGeometry>
        </mxCell>
        <mxCell id="Ef-hdODruIOetG3MJPPk-34" value="CAN RX/TX" style="rounded=0;whiteSpace=wrap;html=1;" vertex="1" parent="1">
          <mxGeometry x="120" y="255" width="70" height="50" as="geometry" />
        </mxCell>
        <mxCell id="Ef-hdODruIOetG3MJPPk-38" value="Can Connector" style="shape=mxgraph.arrows2.arrow;verticalLabelPosition=bottom;shadow=0;dashed=0;align=center;html=1;verticalAlign=top;strokeWidth=1;dy=0;dx=10;notch=0;rotation=-90;" vertex="1" parent="1">
          <mxGeometry x="105" y="450" width="100" height="30" as="geometry" />
        </mxCell>
      </root>
    </mxGraphModel>
  </diagram>
</mxfile>
